<svg xmlns="http://www.w3.org/2000/svg" viewBox="0 0 971 173.25"><defs><style>.cls-1{fill:#febd11;}.cls-2{fill:#0f294b;}</style></defs><g id="Layer_2" data-name="Layer 2"><g id="Layer_1-2" data-name="Layer 1"><path class="cls-1" d="M907.11,0H806.88A9,9,0,0,0,798,8.87V164.31a9,9,0,0,0,8.87,8.87H907.11a64.19,64.19,0,0,0,63.89-64V64A64.07,64.07,0,0,0,907.11,0Z"/><path class="cls-2" d="M933.55,80.89H835.46a3.74,3.74,0,0,1-3.64-3.63V70.87a3.75,3.75,0,0,1,3.64-3.55h74L881,38.92a3.57,3.57,0,0,1,0-4.9l4.48-4.49a3.56,3.56,0,0,1,5-.11,1.14,1.14,0,0,0,.11.11l45.25,45.15a3.55,3.55,0,0,1-2.34,6.21Z"/><path class="cls-2" d="M933.55,92.43H835.46a3.56,3.56,0,0,0-3.64,3.41v6.4a3.72,3.72,0,0,0,3.64,3.55h74l-28.4,28.4a3.55,3.55,0,0,0,0,4.92l4.49,4.47a3.55,3.55,0,0,0,5,.09l.09-.09,45.21-45.26a3.44,3.44,0,0,0,0-4.87A3.49,3.49,0,0,0,933.55,92.43Z"/><path class="cls-2" d="M741.41,48.24H695.77a3.55,3.55,0,0,0-3.55,3.55v12a3.55,3.55,0,0,0,3.46,3.64H742a7.85,7.85,0,0,1,7.9,7.82v22.9a7.83,7.83,0,0,1-7.9,7.68H695.77a3.55,3.55,0,0,0-3.55,3.55v12.25a3.55,3.55,0,0,0,3.55,3.55h45.64a27.67,27.67,0,0,0,27.73-27.62.71.71,0,0,0,0-.14V76a27.66,27.66,0,0,0-27.59-27.74Z"/><path class="cls-2" d="M682.49,71.13V97.59a27.68,27.68,0,0,1-27.61,27.76H635.8a4.49,4.49,0,0,1-2.58-1.06L625.13,116l-.43-.42v5.32a4.77,4.77,0,0,1-3.85,4.49H576.48v1.07a27.67,27.67,0,0,1-27.61,27.75h-31a27.69,27.69,0,0,1-27.72-27.65V90.3a3.55,3.55,0,0,1,3.43-3.64H506a3.56,3.56,0,0,1,3.41,3.64V127a8,8,0,0,0,7.88,7.92h32.46a7.85,7.85,0,0,0,7.67-7.92v-1.77H541.82a3.73,3.73,0,0,1-3.55-3.55V109.52a3.8,3.8,0,0,1,1.49-3,3.61,3.61,0,0,1,2.13-.64h63.68V75.36A7.73,7.73,0,0,0,598,67.48H564.63a3.55,3.55,0,0,1-2.35-6.21l4.05-4.05,7.9-7.92a3.54,3.54,0,0,1,2.55-1.06h20.27a25.74,25.74,0,0,1,9.16,1.49A27.75,27.75,0,0,1,624.77,76V97.54c0,2.77.22,8.11,0,8.33h6.82c.43,0,.64.21,1.06.21h22.81a7.87,7.87,0,0,0,7.9-7.83V71.13a3.55,3.55,0,0,1,3.55-3.55h12A3.55,3.55,0,0,1,682.49,71.13Z"/><path class="cls-2" d="M611.75,134.92H599.61a3.42,3.42,0,0,0-3.63,3.2,1.48,1.48,0,0,0,0,.21v12.15a3.55,3.55,0,0,0,3.46,3.64h12.32a3.56,3.56,0,0,0,3.41-3.64V138.33a3.37,3.37,0,0,0-3.34-3.41Z"/><path class="cls-2" d="M669.32,134.92H638a3.56,3.56,0,0,0-3.64,3.41v12.15a3.74,3.74,0,0,0,3.64,3.64h31.34a3.72,3.72,0,0,0,3.55-3.64V138.33A3.55,3.55,0,0,0,669.32,134.92Z"/><path class="cls-2" d="M415.78,48.24c8.52-8.54,17.74-17.52,22.18-22a4.17,4.17,0,0,0-3-7.1H419a4.06,4.06,0,0,0-3,1.49c-3.85,4.06-16.21,16.44-27.3,27.55-2.55,2.55-5.11,5.11-7.26,7.45l-5.75,5.78a3.56,3.56,0,0,0,2.56,6h35.37a18.65,18.65,0,0,1,18.78,18.52v19.88H356.09a10.52,10.52,0,0,1-10.24-8.75V71.13a3.55,3.55,0,0,0-3.55-3.55H330.14A3.43,3.43,0,0,0,326.73,71s0,.08,0,.11V98.82a7.89,7.89,0,0,1-7.69,7.26h-3.94a8,8,0,0,1-7.88-7.1,3.46,3.46,0,0,0,.21-1.49V71.13a3.54,3.54,0,0,0-3.54-3.55H291.65a3.55,3.55,0,0,0-3.55,3.55V97.59a3.64,3.64,0,0,0,.21,1.5,8,8,0,0,1-7.9,7.09h-3.54A8,8,0,0,1,269,99.09v-28a3.42,3.42,0,0,0-3.3-3.54H253.42a3.55,3.55,0,0,0-3.55,3.55v28a7.86,7.86,0,0,1-7.68,7.09h-3.86a7.81,7.81,0,0,1-7.66-7.09v-28a3.55,3.55,0,0,0-3.55-3.55H215a3.55,3.55,0,0,0-3.55,3.55V97.59c0,.45.21,1.07.21,1.5a8,8,0,0,1-7.89,7.09H182.62V71.13a3.41,3.41,0,0,0-3.29-3.54H167.06a3.55,3.55,0,0,0-3.55,3.55v52.73A11,11,0,0,1,152.65,135H143a3.55,3.55,0,0,0-2.56,6l12.16,12.18a3.91,3.91,0,0,0,2.56,1.06,27.83,27.83,0,0,0,27.51-27.33V115.75l8.51,8.54a3.58,3.58,0,0,0,2.56,1.06h9.39a27.76,27.76,0,0,0,18.14-6.83,26.59,26.59,0,0,0,17.5,6.78h2.34a27.34,27.34,0,0,0,18.12-6.83,27.34,27.34,0,0,0,18.12,6.83h2.36a27.74,27.74,0,0,0,18.12-6.83,26.77,26.77,0,0,0,17.91,6.83h2.34a27.34,27.34,0,0,0,18.12-6.83,27.34,27.34,0,0,0,18.14,6.83h93.85a3.56,3.56,0,0,0,3.41-3.55V84.48a35.84,35.84,0,0,0-35.42-36.24Z"/><path class="cls-2" d="M152.2,105.87a25.81,25.81,0,0,0,1.28-8.31V71.13a3.55,3.55,0,0,0-3.55-3.55H138a3.55,3.55,0,0,0-3.55,3.55v27.1a7.86,7.86,0,0,1-7.83,7.9H123a8.06,8.06,0,0,1-7.9-7.1c0-.65.21-1.06.21-1.49V71.13a3.54,3.54,0,0,0-3.54-3.55H99.62a3.55,3.55,0,0,0-3.55,3.55v28a7.86,7.86,0,0,1-7.69,7.1H84.55A7.74,7.74,0,0,1,77.1,100a4.67,4.67,0,0,1-.22-1.78V71.13a3.55,3.55,0,0,0-3.55-3.55H60.91a3.67,3.67,0,0,0-3.19,3.55v52.73A11,11,0,0,1,46.86,135H30.22a11,11,0,0,1-11.09-11V90.3a3.55,3.55,0,0,0-3.42-3.64H3.55A3.72,3.72,0,0,0,0,90.3v36.06a27.67,27.67,0,0,0,27.58,27.76H48.9a27.79,27.79,0,0,0,27.73-27.76v-1.27h9.59v-.22a3.92,3.92,0,0,0,1.77.43,27.79,27.79,0,0,0,17.27-6.83,27.74,27.74,0,0,0,18.18,6.83h2.34A27.8,27.8,0,0,0,152.2,105.87Z"/><polygon class="cls-2" points="154.76 154.12 154.76 154.12 154.55 154.12 154.76 154.12"/><path class="cls-2" d="M221.49,134.92H190.15a3.37,3.37,0,0,0-3.41,3.33v12.23a3.56,3.56,0,0,0,3.41,3.64h9.6a3.38,3.38,0,0,0-3.41,3.34V169.7a3.43,3.43,0,0,0,3.3,3.55h12.27a3.55,3.55,0,0,0,3.55-3.55V157.55a3.43,3.43,0,0,0-3.43-3.43h9.46a3.55,3.55,0,0,0,3.55-3.55V138.33a3.42,3.42,0,0,0-3.44-3.41Z"/><path class="cls-2" d="M464.19,19.2h13.44a3.05,3.05,0,0,1,3,3V122.3a3.05,3.05,0,0,1-3,3H464.19a2.91,2.91,0,0,1-3-2.84V22.2a2.91,2.91,0,0,1,2.82-3Z"/></g></g></svg>